PathFileType	4	(X/Y/Z)	C:\Users\italobelli\Desktop\GitHub\PTbot_officialCBL\Personal_Results\SHRUG21_noisy2.trc
DataRate	CameraRate	NumFrames	NumMarkers	Units	OrigDataRate	OrigDataStartFrame	OrigNumFrames
112.250000	112.250000	29	9	m	112.250000	338	450
Frame#	Time		gu		centelbow		EpL		centpxt8		centijc7		ij		ts		aa		ai
			X1	Y1	Z1	X2	Y2	Z2	X3	Y3	Z3	X4	Y4	Z4	X5	Y5	Z5	X6	Y6	Z6	X7	Y7	Z7	X8	Y8	Z8	X9	Y9	Z9

338	3.0022	-0.089292	-0.012264	0.1669	-0.12388	-0.25519	0.17607	-0.10908	-0.25212	0.20455	-0.046816	-0.15316	-0.008669	-0.046816	0.031938	-0.008669	0	0	0	-0.13713	0.034396	0.0496	-0.1148	0.024764	0.16636	-0.16388	-0.075918	0.050922
339	3.0111	-0.089296	-0.012306	0.16689	-0.12391	-0.25517	0.17607	-0.10911	-0.2521	0.20454	-0.046816	-0.15316	-0.008669	-0.046816	0.031938	-0.008669	0	0	0	-0.13715	0.034374	0.049596	-0.11479	0.024743	0.16636	-0.16394	-0.075934	0.050865
340	3.02	-0.089308	-0.012347	0.16688	-0.12395	-0.25515	0.17607	-0.10915	-0.25208	0.20454	-0.046816	-0.15316	-0.008669	-0.046816	0.031938	-0.008669	0	0	0	-0.13716	0.034353	0.049589	-0.1148	0.024724	0.16635	-0.164	-0.075949	0.050808
341	3.029	-0.089327	-0.012387	0.16687	-0.124	-0.25512	0.17607	-0.1092	-0.25205	0.20455	-0.046816	-0.15316	-0.008669	-0.046816	0.031938	-0.008669	0	0	0	-0.13718	0.034333	0.049579	-0.11481	0.024706	0.16634	-0.16406	-0.075964	0.050753
342	3.0379	-0.089354	-0.012426	0.16685	-0.12406	-0.25509	0.17608	-0.10926	-0.25202	0.20456	-0.046816	-0.15316	-0.008669	-0.046816	0.031938	-0.008669	0	0	0	-0.1372	0.034314	0.049566	-0.11484	0.02469	0.16633	-0.16412	-0.075977	0.050698
343	3.0468	-0.089388	-0.012465	0.16683	-0.12413	-0.25506	0.17609	-0.10934	-0.25199	0.20457	-0.046816	-0.15316	-0.008669	-0.046816	0.031938	-0.008669	0	0	0	-0.13722	0.034295	0.04955	-0.11487	0.024674	0.16632	-0.16418	-0.075991	0.050644
344	3.0557	-0.089428	-0.012502	0.1668	-0.12421	-0.25502	0.17611	-0.10942	-0.25196	0.20458	-0.046816	-0.15316	-0.008669	-0.046816	0.031938	-0.008669	0	0	0	-0.13724	0.034277	0.049531	-0.1149	0.024661	0.16631	-0.16424	-0.076003	0.050591
345	3.0646	-0.089475	-0.012539	0.16677	-0.1243	-0.25498	0.17612	-0.10952	-0.25192	0.2046	-0.046816	-0.15316	-0.008669	-0.046816	0.031938	-0.008669	0	0	0	-0.13727	0.03426	0.049511	-0.11495	0.024648	0.16629	-0.1643	-0.076015	0.050538
346	3.0735	-0.089527	-0.012575	0.16674	-0.1244	-0.25494	0.17614	-0.10963	-0.25188	0.20463	-0.046816	-0.15316	-0.008669	-0.046816	0.031938	-0.008669	0	0	0	-0.13729	0.034243	0.049487	-0.115	0.024636	0.16627	-0.16436	-0.076026	0.050486
347	3.0824	-0.089586	-0.012609	0.1667	-0.12451	-0.25489	0.17617	-0.10975	-0.25184	0.20465	-0.046816	-0.15316	-0.008669	-0.046816	0.031938	-0.008669	0	0	0	-0.13732	0.034227	0.049461	-0.11506	0.024626	0.16626	-0.16443	-0.076037	0.050435
348	3.0913	-0.08965	-0.012643	0.16666	-0.12463	-0.25484	0.17619	-0.10988	-0.25179	0.20468	-0.046816	-0.15316	-0.008669	-0.046816	0.031938	-0.008669	0	0	0	-0.13734	0.034211	0.049433	-0.11512	0.024617	0.16624	-0.16449	-0.076047	0.050385
349	3.1002	-0.089719	-0.012676	0.16662	-0.12476	-0.25479	0.17622	-0.11001	-0.25174	0.20472	-0.046816	-0.15316	-0.008669	-0.046816	0.031938	-0.008669	0	0	0	-0.13737	0.034196	0.049403	-0.11519	0.02461	0.16622	-0.16455	-0.076056	0.050336
350	3.1091	-0.089794	-0.012708	0.16657	-0.1249	-0.25474	0.17625	-0.11016	-0.25169	0.20475	-0.046816	-0.15316	-0.008669	-0.046816	0.031938	-0.008669	0	0	0	-0.1374	0.034182	0.049371	-0.11526	0.024603	0.16619	-0.1646	-0.076064	0.050288
351	3.118	-0.089873	-0.012739	0.16652	-0.12504	-0.25468	0.17629	-0.11031	-0.25164	0.20479	-0.046816	-0.15316	-0.008669	-0.046816	0.031938	-0.008669	0	0	0	-0.13743	0.034169	0.049337	-0.11534	0.024598	0.16617	-0.16466	-0.076072	0.05024
352	3.1269	-0.089956	-0.012769	0.16647	-0.12519	-0.25462	0.17632	-0.11048	-0.25158	0.20483	-0.046816	-0.15316	-0.008669	-0.046816	0.031938	-0.008669	0	0	0	-0.13746	0.034156	0.049302	-0.11543	0.024594	0.16614	-0.16472	-0.076079	0.050193
353	3.1359	-0.090044	-0.012798	0.16642	-0.12535	-0.25455	0.17636	-0.11064	-0.25153	0.20488	-0.046816	-0.15316	-0.008669	-0.046816	0.031938	-0.008669	0	0	0	-0.1375	0.034144	0.049264	-0.11552	0.024591	0.16612	-0.16478	-0.076086	0.050148
354	3.1448	-0.090135	-0.012826	0.16636	-0.12552	-0.25449	0.1764	-0.11082	-0.25147	0.20492	-0.046816	-0.15316	-0.008669	-0.046816	0.031938	-0.008669	0	0	0	-0.13753	0.034132	0.049225	-0.11561	0.024589	0.16609	-0.16484	-0.076092	0.050103
355	3.1537	-0.09023	-0.012852	0.16631	-0.12569	-0.25442	0.17644	-0.111	-0.25141	0.20497	-0.046816	-0.15316	-0.008669	-0.046816	0.031938	-0.008669	0	0	0	-0.13756	0.034122	0.049185	-0.11571	0.024588	0.16606	-0.1649	-0.076097	0.050059
356	3.1626	-0.090329	-0.012878	0.16625	-0.12586	-0.25435	0.17648	-0.11119	-0.25135	0.20502	-0.046816	-0.15316	-0.008669	-0.046816	0.031938	-0.008669	0	0	0	-0.1376	0.034112	0.049143	-0.11581	0.024589	0.16603	-0.16495	-0.076102	0.050016
357	3.1715	-0.09043	-0.012903	0.16619	-0.12605	-0.25428	0.17653	-0.11139	-0.25128	0.20507	-0.046816	-0.15316	-0.008669	-0.046816	0.031938	-0.008669	0	0	0	-0.13763	0.034102	0.0491	-0.11591	0.02459	0.166	-0.16501	-0.076106	0.049974
358	3.1804	-0.090535	-0.012927	0.16612	-0.12623	-0.25421	0.17657	-0.11159	-0.25122	0.20512	-0.046816	-0.15316	-0.008669	-0.046816	0.031938	-0.008669	0	0	0	-0.13767	0.034094	0.049056	-0.11602	0.024593	0.16597	-0.16506	-0.076109	0.049933
359	3.1893	-0.090641	-0.012949	0.16606	-0.12642	-0.25414	0.17662	-0.11179	-0.25115	0.20518	-0.046816	-0.15316	-0.008669	-0.046816	0.031938	-0.008669	0	0	0	-0.1377	0.034086	0.049011	-0.11613	0.024596	0.16594	-0.16512	-0.076112	0.049893
360	3.1982	-0.09075	-0.01297	0.16599	-0.12662	-0.25406	0.17667	-0.112	-0.25108	0.20523	-0.046816	-0.15316	-0.008669	-0.046816	0.031938	-0.008669	0	0	0	-0.13774	0.034078	0.048966	-0.11624	0.024601	0.16591	-0.16517	-0.076114	0.049854
361	3.2071	-0.090861	-0.012991	0.16592	-0.12682	-0.25398	0.17672	-0.11221	-0.25101	0.20529	-0.046816	-0.15316	-0.008669	-0.046816	0.031938	-0.008669	0	0	0	-0.13778	0.034072	0.048919	-0.11636	0.024607	0.16588	-0.16523	-0.076116	0.049815
362	3.216	-0.090974	-0.01301	0.16586	-0.12702	-0.25391	0.17677	-0.11243	-0.25094	0.20535	-0.046816	-0.15316	-0.008669	-0.046816	0.031938	-0.008669	0	0	0	-0.13781	0.034066	0.048872	-0.11647	0.024614	0.16584	-0.16528	-0.076117	0.049778
363	3.2249	-0.091087	-0.013028	0.16579	-0.12722	-0.25383	0.17682	-0.11265	-0.25087	0.2054	-0.046816	-0.15316	-0.008669	-0.046816	0.031938	-0.008669	0	0	0	-0.13785	0.034061	0.048824	-0.11659	0.024622	0.16581	-0.16533	-0.076117	0.049742
364	3.2339	-0.091202	-0.013044	0.16572	-0.12743	-0.25375	0.17687	-0.11287	-0.2508	0.20546	-0.046816	-0.15316	-0.008669	-0.046816	0.031938	-0.008669	0	0	0	-0.13789	0.034056	0.048776	-0.11671	0.024631	0.16577	-0.16539	-0.076117	0.049708
365	3.2428	-0.091318	-0.01306	0.16565	-0.12764	-0.25367	0.17692	-0.11309	-0.25073	0.20552	-0.046816	-0.15316	-0.008669	-0.046816	0.031938	-0.008669	0	0	0	-0.13793	0.034052	0.048727	-0.11682	0.024641	0.16574	-0.16544	-0.076116	0.049674
366	3.2517	-0.091435	-0.013074	0.16557	-0.12785	-0.25359	0.17697	-0.11332	-0.25065	0.20558	-0.046816	-0.15316	-0.008669	-0.046816	0.031938	-0.008669	0	0	0	-0.13796	0.034049	0.048679	-0.11694	0.024652	0.16571	-0.16549	-0.076114	0.049641
